<svg xmlns="http://www.w3.org/2000/svg" width="252" height="252" viewBox="0 0 252 252">
  <rect width="252" height="252" fill="#faf8f3"/><rect x="0" y="0" width="12" height="12" fill="#3b3b3b"/><rect x="12" y="0" width="12" height="12" fill="#3b3b3b"/><rect x="24" y="0" width="12" height="12" fill="#3b3b3b"/><rect x="36" y="0" width="12" height="12" fill="#3b3b3b"/><rect x="48" y="0" width="12" height="12" fill="#3b3b3b"/><rect x="60" y="0" width="12" height="12" fill="#3b3b3b"/><rect x="72" y="0" width="12" height="12" fill="#3b3b3b"/><rect x="108" y="0" width="12" height="12" fill="#3b3b3b"/><rect x="144" y="0" width="12" height="12" fill="#3b3b3b"/><rect x="168" y="0" width="12" height="12" fill="#3b3b3b"/><rect x="180" y="0" width="12" height="12" fill="#3b3b3b"/><rect x="192" y="0" width="12" height="12" fill="#3b3b3b"/><rect x="204" y="0" width="12" height="12" fill="#3b3b3b"/><rect x="216" y="0" width="12" height="12" fill="#3b3b3b"/><rect x="228" y="0" width="12" height="12" fill="#3b3b3b"/><rect x="240" y="0" width="12" height="12" fill="#3b3b3b"/><rect x="0" y="12" width="12" height="12" fill="#3b3b3b"/><rect x="12" y="12" width="12" height="12" fill="#3b3b3b"/><rect x="24" y="12" width="12" height="12" fill="#3b3b3b"/><rect x="36" y="12" width="12" height="12" fill="#3b3b3b"/><rect x="48" y="12" width="12" height="12" fill="#3b3b3b"/><rect x="60" y="12" width="12" height="12" fill="#3b3b3b"/><rect x="72" y="12" width="12" height="12" fill="#3b3b3b"/><rect x="84" y="12" width="12" height="12" fill="#3b3b3b"/><rect x="120" y="12" width="12" height="12" fill="#3b3b3b"/><rect x="156" y="12" width="12" height="12" fill="#3b3b3b"/><rect x="168" y="12" width="12" height="12" fill="#3b3b3b"/><rect x="180" y="12" width="12" height="12" fill="#3b3b3b"/><rect x="192" y="12" width="12" height="12" fill="#3b3b3b"/><rect x="204" y="12" width="12" height="12" fill="#3b3b3b"/><rect x="216" y="12" width="12" height="12" fill="#3b3b3b"/><rect x="228" y="12" width="12" height="12" fill="#3b3b3b"/><rect x="240" y="12" width="12" height="12" fill="#3b3b3b"/><rect x="0" y="24" width="12" height="12" fill="#3b3b3b"/><rect x="12" y="24" width="12" height="12" fill="#3b3b3b"/><rect x="24" y="24" width="12" height="12" fill="#3b3b3b"/><rect x="36" y="24" width="12" height="12" fill="#3b3b3b"/><rect x="48" y="24" width="12" height="12" fill="#3b3b3b"/><rect x="60" y="24" width="12" height="12" fill="#3b3b3b"/><rect x="72" y="24" width="12" height="12" fill="#3b3b3b"/><rect x="168" y="24" width="12" height="12" fill="#3b3b3b"/><rect x="180" y="24" width="12" height="12" fill="#3b3b3b"/><rect x="192" y="24" width="12" height="12" fill="#3b3b3b"/><rect x="204" y="24" width="12" height="12" fill="#3b3b3b"/><rect x="216" y="24" width="12" height="12" fill="#3b3b3b"/><rect x="228" y="24" width="12" height="12" fill="#3b3b3b"/><rect x="240" y="24" width="12" height="12" fill="#3b3b3b"/><rect x="0" y="36" width="12" height="12" fill="#3b3b3b"/><rect x="12" y="36" width="12" height="12" fill="#3b3b3b"/><rect x="24" y="36" width="12" height="12" fill="#3b3b3b"/><rect x="36" y="36" width="12" height="12" fill="#3b3b3b"/><rect x="48" y="36" width="12" height="12" fill="#3b3b3b"/><rect x="60" y="36" width="12" height="12" fill="#3b3b3b"/><rect x="72" y="36" width="12" height="12" fill="#3b3b3b"/><rect x="108" y="36" width="12" height="12" fill="#3b3b3b"/><rect x="144" y="36" width="12" height="12" fill="#3b3b3b"/><rect x="168" y="36" width="12" height="12" fill="#3b3b3b"/><rect x="180" y="36" width="12" height="12" fill="#3b3b3b"/><rect x="192" y="36" width="12" height="12" fill="#3b3b3b"/><rect x="204" y="36" width="12" height="12" fill="#3b3b3b"/><rect x="216" y="36" width="12" height="12" fill="#3b3b3b"/><rect x="228" y="36" width="12" height="12" fill="#3b3b3b"/><rect x="240" y="36" width="12" height="12" fill="#3b3b3b"/><rect x="0" y="48" width="12" height="12" fill="#3b3b3b"/><rect x="12" y="48" width="12" height="12" fill="#3b3b3b"/><rect x="24" y="48" width="12" height="12" fill="#3b3b3b"/><rect x="36" y="48" width="12" height="12" fill="#3b3b3b"/><rect x="48" y="48" width="12" height="12" fill="#3b3b3b"/><rect x="60" y="48" width="12" height="12" fill="#3b3b3b"/><rect x="72" y="48" width="12" height="12" fill="#3b3b3b"/><rect x="84" y="48" width="12" height="12" fill="#3b3b3b"/><rect x="120" y="48" width="12" height="12" fill="#3b3b3b"/><rect x="156" y="48" width="12" height="12" fill="#3b3b3b"/><rect x="168" y="48" width="12" height="12" fill="#3b3b3b"/><rect x="180" y="48" width="12" height="12" fill="#3b3b3b"/><rect x="192" y="48" width="12" height="12" fill="#3b3b3b"/><rect x="204" y="48" width="12" height="12" fill="#3b3b3b"/><rect x="216" y="48" width="12" height="12" fill="#3b3b3b"/><rect x="228" y="48" width="12" height="12" fill="#3b3b3b"/><rect x="240" y="48" width="12" height="12" fill="#3b3b3b"/><rect x="0" y="60" width="12" height="12" fill="#3b3b3b"/><rect x="12" y="60" width="12" height="12" fill="#3b3b3b"/><rect x="24" y="60" width="12" height="12" fill="#3b3b3b"/><rect x="36" y="60" width="12" height="12" fill="#3b3b3b"/><rect x="48" y="60" width="12" height="12" fill="#3b3b3b"/><rect x="60" y="60" width="12" height="12" fill="#3b3b3b"/><rect x="72" y="60" width="12" height="12" fill="#3b3b3b"/><rect x="168" y="60" width="12" height="12" fill="#3b3b3b"/><rect x="180" y="60" width="12" height="12" fill="#3b3b3b"/><rect x="192" y="60" width="12" height="12" fill="#3b3b3b"/><rect x="204" y="60" width="12" height="12" fill="#3b3b3b"/><rect x="216" y="60" width="12" height="12" fill="#3b3b3b"/><rect x="228" y="60" width="12" height="12" fill="#3b3b3b"/><rect x="240" y="60" width="12" height="12" fill="#3b3b3b"/><rect x="0" y="72" width="12" height="12" fill="#3b3b3b"/><rect x="12" y="72" width="12" height="12" fill="#3b3b3b"/><rect x="24" y="72" width="12" height="12" fill="#3b3b3b"/><rect x="36" y="72" width="12" height="12" fill="#3b3b3b"/><rect x="48" y="72" width="12" height="12" fill="#3b3b3b"/><rect x="60" y="72" width="12" height="12" fill="#3b3b3b"/><rect x="72" y="72" width="12" height="12" fill="#3b3b3b"/><rect x="108" y="72" width="12" height="12" fill="#3b3b3b"/><rect x="144" y="72" width="12" height="12" fill="#3b3b3b"/><rect x="168" y="72" width="12" height="12" fill="#3b3b3b"/><rect x="180" y="72" width="12" height="12" fill="#3b3b3b"/><rect x="192" y="72" width="12" height="12" fill="#3b3b3b"/><rect x="204" y="72" width="12" height="12" fill="#3b3b3b"/><rect x="216" y="72" width="12" height="12" fill="#3b3b3b"/><rect x="228" y="72" width="12" height="12" fill="#3b3b3b"/><rect x="240" y="72" width="12" height="12" fill="#3b3b3b"/><rect x="12" y="84" width="12" height="12" fill="#3b3b3b"/><rect x="48" y="84" width="12" height="12" fill="#3b3b3b"/><rect x="84" y="84" width="12" height="12" fill="#3b3b3b"/><rect x="120" y="84" width="12" height="12" fill="#3b3b3b"/><rect x="156" y="84" width="12" height="12" fill="#3b3b3b"/><rect x="192" y="84" width="12" height="12" fill="#3b3b3b"/><rect x="228" y="84" width="12" height="12" fill="#3b3b3b"/><rect x="0" y="108" width="12" height="12" fill="#3b3b3b"/><rect x="36" y="108" width="12" height="12" fill="#3b3b3b"/><rect x="72" y="108" width="12" height="12" fill="#3b3b3b"/><rect x="108" y="108" width="12" height="12" fill="#3b3b3b"/><rect x="144" y="108" width="12" height="12" fill="#3b3b3b"/><rect x="180" y="108" width="12" height="12" fill="#3b3b3b"/><rect x="216" y="108" width="12" height="12" fill="#3b3b3b"/><rect x="12" y="120" width="12" height="12" fill="#3b3b3b"/><rect x="48" y="120" width="12" height="12" fill="#3b3b3b"/><rect x="84" y="120" width="12" height="12" fill="#3b3b3b"/><rect x="120" y="120" width="12" height="12" fill="#3b3b3b"/><rect x="156" y="120" width="12" height="12" fill="#3b3b3b"/><rect x="192" y="120" width="12" height="12" fill="#3b3b3b"/><rect x="228" y="120" width="12" height="12" fill="#3b3b3b"/><rect x="0" y="144" width="12" height="12" fill="#3b3b3b"/><rect x="36" y="144" width="12" height="12" fill="#3b3b3b"/><rect x="72" y="144" width="12" height="12" fill="#3b3b3b"/><rect x="108" y="144" width="12" height="12" fill="#3b3b3b"/><rect x="144" y="144" width="12" height="12" fill="#3b3b3b"/><rect x="180" y="144" width="12" height="12" fill="#3b3b3b"/><rect x="216" y="144" width="12" height="12" fill="#3b3b3b"/><rect x="12" y="156" width="12" height="12" fill="#3b3b3b"/><rect x="48" y="156" width="12" height="12" fill="#3b3b3b"/><rect x="84" y="156" width="12" height="12" fill="#3b3b3b"/><rect x="120" y="156" width="12" height="12" fill="#3b3b3b"/><rect x="156" y="156" width="12" height="12" fill="#3b3b3b"/><rect x="192" y="156" width="12" height="12" fill="#3b3b3b"/><rect x="228" y="156" width="12" height="12" fill="#3b3b3b"/><rect x="0" y="168" width="12" height="12" fill="#3b3b3b"/><rect x="12" y="168" width="12" height="12" fill="#3b3b3b"/><rect x="24" y="168" width="12" height="12" fill="#3b3b3b"/><rect x="36" y="168" width="12" height="12" fill="#3b3b3b"/><rect x="48" y="168" width="12" height="12" fill="#3b3b3b"/><rect x="60" y="168" width="12" height="12" fill="#3b3b3b"/><rect x="72" y="168" width="12" height="12" fill="#3b3b3b"/><rect x="0" y="180" width="12" height="12" fill="#3b3b3b"/><rect x="12" y="180" width="12" height="12" fill="#3b3b3b"/><rect x="24" y="180" width="12" height="12" fill="#3b3b3b"/><rect x="36" y="180" width="12" height="12" fill="#3b3b3b"/><rect x="48" y="180" width="12" height="12" fill="#3b3b3b"/><rect x="60" y="180" width="12" height="12" fill="#3b3b3b"/><rect x="72" y="180" width="12" height="12" fill="#3b3b3b"/><rect x="108" y="180" width="12" height="12" fill="#3b3b3b"/><rect x="144" y="180" width="12" height="12" fill="#3b3b3b"/><rect x="180" y="180" width="12" height="12" fill="#3b3b3b"/><rect x="216" y="180" width="12" height="12" fill="#3b3b3b"/><rect x="0" y="192" width="12" height="12" fill="#3b3b3b"/><rect x="12" y="192" width="12" height="12" fill="#3b3b3b"/><rect x="24" y="192" width="12" height="12" fill="#3b3b3b"/><rect x="36" y="192" width="12" height="12" fill="#3b3b3b"/><rect x="48" y="192" width="12" height="12" fill="#3b3b3b"/><rect x="60" y="192" width="12" height="12" fill="#3b3b3b"/><rect x="72" y="192" width="12" height="12" fill="#3b3b3b"/><rect x="84" y="192" width="12" height="12" fill="#3b3b3b"/><rect x="120" y="192" width="12" height="12" fill="#3b3b3b"/><rect x="156" y="192" width="12" height="12" fill="#3b3b3b"/><rect x="192" y="192" width="12" height="12" fill="#3b3b3b"/><rect x="228" y="192" width="12" height="12" fill="#3b3b3b"/><rect x="0" y="204" width="12" height="12" fill="#3b3b3b"/><rect x="12" y="204" width="12" height="12" fill="#3b3b3b"/><rect x="24" y="204" width="12" height="12" fill="#3b3b3b"/><rect x="36" y="204" width="12" height="12" fill="#3b3b3b"/><rect x="48" y="204" width="12" height="12" fill="#3b3b3b"/><rect x="60" y="204" width="12" height="12" fill="#3b3b3b"/><rect x="72" y="204" width="12" height="12" fill="#3b3b3b"/><rect x="0" y="216" width="12" height="12" fill="#3b3b3b"/><rect x="12" y="216" width="12" height="12" fill="#3b3b3b"/><rect x="24" y="216" width="12" height="12" fill="#3b3b3b"/><rect x="36" y="216" width="12" height="12" fill="#3b3b3b"/><rect x="48" y="216" width="12" height="12" fill="#3b3b3b"/><rect x="60" y="216" width="12" height="12" fill="#3b3b3b"/><rect x="72" y="216" width="12" height="12" fill="#3b3b3b"/><rect x="108" y="216" width="12" height="12" fill="#3b3b3b"/><rect x="144" y="216" width="12" height="12" fill="#3b3b3b"/><rect x="180" y="216" width="12" height="12" fill="#3b3b3b"/><rect x="216" y="216" width="12" height="12" fill="#3b3b3b"/><rect x="0" y="228" width="12" height="12" fill="#3b3b3b"/><rect x="12" y="228" width="12" height="12" fill="#3b3b3b"/><rect x="24" y="228" width="12" height="12" fill="#3b3b3b"/><rect x="36" y="228" width="12" height="12" fill="#3b3b3b"/><rect x="48" y="228" width="12" height="12" fill="#3b3b3b"/><rect x="60" y="228" width="12" height="12" fill="#3b3b3b"/><rect x="72" y="228" width="12" height="12" fill="#3b3b3b"/><rect x="84" y="228" width="12" height="12" fill="#3b3b3b"/><rect x="120" y="228" width="12" height="12" fill="#3b3b3b"/><rect x="156" y="228" width="12" height="12" fill="#3b3b3b"/><rect x="192" y="228" width="12" height="12" fill="#3b3b3b"/><rect x="228" y="228" width="12" height="12" fill="#3b3b3b"/><rect x="0" y="240" width="12" height="12" fill="#3b3b3b"/><rect x="12" y="240" width="12" height="12" fill="#3b3b3b"/><rect x="24" y="240" width="12" height="12" fill="#3b3b3b"/><rect x="36" y="240" width="12" height="12" fill="#3b3b3b"/><rect x="48" y="240" width="12" height="12" fill="#3b3b3b"/><rect x="60" y="240" width="12" height="12" fill="#3b3b3b"/><rect x="72" y="240" width="12" height="12" fill="#3b3b3b"/>
  <rect x="0" y="0" width="252" height="252" fill="none" stroke="#708238" stroke-width="4"/>
</svg>